<mxfile host="app.diagrams.net" modified="2023-05-05T16:45:44.889Z" agent="Mozilla/5.0 (Windows NT 10.0; Win64; x64; rv:109.0) Gecko/20100101 Firefox/112.0" etag="Tbe9Lgv7VZKEDO_n9vpG" version="21.2.9" type="device">
  <diagram id="X3C-2EfBO2Du4P8uYJcS" name="Page-1">
    <mxGraphModel dx="1434" dy="782" grid="1" gridSize="10" guides="1" tooltips="1" connect="1" arrows="1" fold="1" page="1" pageScale="1" pageWidth="827" pageHeight="1169" math="0" shadow="0">
      <root>
        <mxCell id="0" />
        <mxCell id="1" parent="0" />
        <mxCell id="ySRVVfsnRc5VpeJbLZZo-1" value="&lt;div&gt;Arduino UNO&lt;/div&gt;" style="dashed=0;outlineConnect=0;html=1;align=center;labelPosition=center;verticalLabelPosition=bottom;verticalAlign=top;shape=mxgraph.webicons.arduino;gradientColor=#DFDEDE" parent="1" vertex="1">
          <mxGeometry x="480" y="255" width="130" height="130" as="geometry" />
        </mxCell>
        <mxCell id="ySRVVfsnRc5VpeJbLZZo-3" value="" style="sketch=0;html=1;aspect=fixed;strokeColor=none;shadow=0;align=center;verticalAlign=top;fillColor=#3B8DF1;shape=mxgraph.gcp2.phone_android;rotation=-90;" parent="1" vertex="1">
          <mxGeometry x="80" y="240" width="95.2" height="170" as="geometry" />
        </mxCell>
        <mxCell id="ySRVVfsnRc5VpeJbLZZo-5" value="" style="html=1;strokeWidth=1;shadow=0;dashed=0;shape=mxgraph.ios7.misc.bluetooth;fillColor=#007AFF;strokeColor=none;buttonText=;strokeColor2=#222222;fontColor=#222222;fontSize=8;verticalLabelPosition=bottom;verticalAlign=top;align=center;sketch=0;" parent="1" vertex="1">
          <mxGeometry x="140" y="290" width="15" height="15" as="geometry" />
        </mxCell>
        <mxCell id="ySRVVfsnRc5VpeJbLZZo-12" value="" style="group" parent="1" vertex="1" connectable="0">
          <mxGeometry x="300" y="280" width="90" height="80" as="geometry" />
        </mxCell>
        <mxCell id="ySRVVfsnRc5VpeJbLZZo-8" value="&lt;div&gt;&lt;br&gt;&lt;/div&gt;&lt;div&gt;&lt;br&gt;&lt;/div&gt;&lt;div&gt;&lt;br&gt;&lt;/div&gt;&lt;div&gt;Module&lt;/div&gt;" style="rounded=0;whiteSpace=wrap;html=1;" parent="ySRVVfsnRc5VpeJbLZZo-12" vertex="1">
          <mxGeometry width="90" height="80" as="geometry" />
        </mxCell>
        <mxCell id="ySRVVfsnRc5VpeJbLZZo-7" value="" style="html=1;verticalLabelPosition=bottom;align=center;labelBackgroundColor=#ffffff;verticalAlign=top;strokeWidth=2;strokeColor=#0080F0;shadow=0;dashed=0;shape=mxgraph.ios7.icons.bluetooth;pointerEvents=1" parent="ySRVVfsnRc5VpeJbLZZo-12" vertex="1">
          <mxGeometry x="37.5" y="17.19999999999999" width="15" height="28.799999999999997" as="geometry" />
        </mxCell>
        <mxCell id="ySRVVfsnRc5VpeJbLZZo-13" value="&lt;b&gt;&lt;font style=&quot;font-size: 14px;&quot;&gt;LCD&lt;/font&gt;&lt;/b&gt;" style="shape=display;whiteSpace=wrap;html=1;" parent="1" vertex="1">
          <mxGeometry x="720.5" y="240" width="140" height="70" as="geometry" />
        </mxCell>
        <mxCell id="ySRVVfsnRc5VpeJbLZZo-14" value="" style="endArrow=classic;html=1;rounded=0;fontSize=14;entryX=0;entryY=0.5;entryDx=0;entryDy=0;entryPerimeter=0;" parent="1" source="ySRVVfsnRc5VpeJbLZZo-1" target="ySRVVfsnRc5VpeJbLZZo-13" edge="1">
          <mxGeometry width="50" height="50" relative="1" as="geometry">
            <mxPoint x="370" y="400" as="sourcePoint" />
            <mxPoint x="420" y="350" as="targetPoint" />
          </mxGeometry>
        </mxCell>
        <mxCell id="ySRVVfsnRc5VpeJbLZZo-15" value="" style="endArrow=classic;html=1;rounded=0;fontSize=14;exitX=1;exitY=0.5;exitDx=0;exitDy=0;" parent="1" source="ySRVVfsnRc5VpeJbLZZo-8" target="ySRVVfsnRc5VpeJbLZZo-1" edge="1">
          <mxGeometry width="50" height="50" relative="1" as="geometry">
            <mxPoint x="370" y="400" as="sourcePoint" />
            <mxPoint x="420" y="350" as="targetPoint" />
          </mxGeometry>
        </mxCell>
        <mxCell id="ySRVVfsnRc5VpeJbLZZo-16" value="" style="endArrow=classic;dashed=1;html=1;dashPattern=1 3;strokeWidth=2;rounded=0;fontSize=14;exitX=0.553;exitY=1.009;exitDx=0;exitDy=0;exitPerimeter=0;endFill=1;entryX=0;entryY=0.5;entryDx=0;entryDy=0;" parent="1" source="ySRVVfsnRc5VpeJbLZZo-3" target="ySRVVfsnRc5VpeJbLZZo-8" edge="1">
          <mxGeometry width="50" height="50" relative="1" as="geometry">
            <mxPoint x="370" y="400" as="sourcePoint" />
            <mxPoint x="290" y="320" as="targetPoint" />
          </mxGeometry>
        </mxCell>
        <mxCell id="ySRVVfsnRc5VpeJbLZZo-17" value="&lt;div style=&quot;font-size: 13px;&quot;&gt;&lt;font style=&quot;font-size: 12px;&quot;&gt;Buzzer&lt;/font&gt;&lt;/div&gt;" style="pointerEvents=1;verticalLabelPosition=bottom;shadow=0;dashed=0;align=center;html=1;verticalAlign=top;shape=mxgraph.electrical.electro-mechanical.loudspeaker;fontSize=14;" parent="1" vertex="1">
          <mxGeometry x="778" y="350" width="25" height="50" as="geometry" />
        </mxCell>
        <mxCell id="ySRVVfsnRc5VpeJbLZZo-18" value="" style="endArrow=classic;html=1;rounded=0;fontSize=12;entryX=0;entryY=0.4;entryDx=0;entryDy=0;entryPerimeter=0;" parent="1" source="ySRVVfsnRc5VpeJbLZZo-1" target="ySRVVfsnRc5VpeJbLZZo-17" edge="1">
          <mxGeometry width="50" height="50" relative="1" as="geometry">
            <mxPoint x="370" y="400" as="sourcePoint" />
            <mxPoint x="420" y="350" as="targetPoint" />
          </mxGeometry>
        </mxCell>
        <mxCell id="ySRVVfsnRc5VpeJbLZZo-20" value="" style="endArrow=classic;html=1;rounded=0;fontSize=12;exitX=0.5;exitY=1;exitDx=0;exitDy=0;" parent="1" source="ySRVVfsnRc5VpeJbLZZo-19" target="ySRVVfsnRc5VpeJbLZZo-1" edge="1">
          <mxGeometry width="50" height="50" relative="1" as="geometry">
            <mxPoint x="370" y="400" as="sourcePoint" />
            <mxPoint x="420" y="350" as="targetPoint" />
          </mxGeometry>
        </mxCell>
        <mxCell id="ySRVVfsnRc5VpeJbLZZo-22" value="" style="group" parent="1" vertex="1" connectable="0">
          <mxGeometry x="430" y="80" width="120" height="100" as="geometry" />
        </mxCell>
        <mxCell id="ySRVVfsnRc5VpeJbLZZo-19" value="&lt;div&gt;&lt;br&gt;&lt;/div&gt;&lt;div&gt;&lt;br&gt;&lt;/div&gt;&lt;div&gt;&lt;br&gt;&lt;/div&gt;&lt;div&gt;&lt;br&gt;&lt;/div&gt;&lt;div&gt;Ultrasound Sensor&lt;/div&gt;" style="rounded=0;whiteSpace=wrap;html=1;fontSize=12;" parent="ySRVVfsnRc5VpeJbLZZo-22" vertex="1">
          <mxGeometry width="120" height="100" as="geometry" />
        </mxCell>
        <mxCell id="ySRVVfsnRc5VpeJbLZZo-21" value="" style="shape=image;html=1;verticalAlign=top;verticalLabelPosition=bottom;labelBackgroundColor=#ffffff;imageAspect=0;aspect=fixed;image=https://cdn1.iconfinder.com/data/icons/ios-11-glyphs/30/radio_waves-128.png;fontSize=12;" parent="ySRVVfsnRc5VpeJbLZZo-22" vertex="1">
          <mxGeometry x="30" y="10" width="60" height="60" as="geometry" />
        </mxCell>
        <mxCell id="ySRVVfsnRc5VpeJbLZZo-24" value="" style="shape=flexArrow;endArrow=classic;html=1;rounded=0;fontSize=12;exitX=0;exitY=0.25;exitDx=0;exitDy=0;" parent="1" source="ySRVVfsnRc5VpeJbLZZo-23" target="ySRVVfsnRc5VpeJbLZZo-1" edge="1">
          <mxGeometry width="50" height="50" relative="1" as="geometry">
            <mxPoint x="370" y="400" as="sourcePoint" />
            <mxPoint x="420" y="350" as="targetPoint" />
          </mxGeometry>
        </mxCell>
        <mxCell id="ySRVVfsnRc5VpeJbLZZo-25" value="I2C" style="text;html=1;strokeColor=none;fillColor=none;align=center;verticalAlign=middle;whiteSpace=wrap;rounded=0;fontSize=12;" parent="1" vertex="1">
          <mxGeometry x="630" y="255" width="60" height="30" as="geometry" />
        </mxCell>
        <mxCell id="ySRVVfsnRc5VpeJbLZZo-28" value="&lt;div&gt;Dual Motor Driver&lt;/div&gt;" style="rounded=0;whiteSpace=wrap;html=1;fontSize=12;" parent="1" vertex="1">
          <mxGeometry x="365" y="464" width="120" height="60" as="geometry" />
        </mxCell>
        <mxCell id="ySRVVfsnRc5VpeJbLZZo-29" value="" style="endArrow=classic;html=1;rounded=0;fontSize=12;entryX=0.458;entryY=-0.028;entryDx=0;entryDy=0;entryPerimeter=0;" parent="1" source="ySRVVfsnRc5VpeJbLZZo-1" target="ySRVVfsnRc5VpeJbLZZo-28" edge="1">
          <mxGeometry width="50" height="50" relative="1" as="geometry">
            <mxPoint x="370" y="400" as="sourcePoint" />
            <mxPoint x="420" y="350" as="targetPoint" />
          </mxGeometry>
        </mxCell>
        <mxCell id="ySRVVfsnRc5VpeJbLZZo-34" value="" style="group" parent="1" vertex="1" connectable="0">
          <mxGeometry x="445" y="590" width="80" height="110" as="geometry" />
        </mxCell>
        <mxCell id="ySRVVfsnRc5VpeJbLZZo-31" value="M" style="dashed=0;outlineConnect=0;align=center;html=1;shape=mxgraph.pid.engines.electric_motor;fontSize=45;" parent="ySRVVfsnRc5VpeJbLZZo-34" vertex="1">
          <mxGeometry x="5" width="70" height="70" as="geometry" />
        </mxCell>
        <mxCell id="ySRVVfsnRc5VpeJbLZZo-33" value="Right Wheel Motor" style="text;html=1;strokeColor=none;fillColor=none;align=center;verticalAlign=middle;whiteSpace=wrap;rounded=0;fontSize=12;" parent="ySRVVfsnRc5VpeJbLZZo-34" vertex="1">
          <mxGeometry y="80" width="80" height="30" as="geometry" />
        </mxCell>
        <mxCell id="ySRVVfsnRc5VpeJbLZZo-35" value="" style="group" parent="1" vertex="1" connectable="0">
          <mxGeometry x="325" y="590" width="80" height="110" as="geometry" />
        </mxCell>
        <mxCell id="ySRVVfsnRc5VpeJbLZZo-30" value="M" style="dashed=0;outlineConnect=0;align=center;html=1;shape=mxgraph.pid.engines.electric_motor;fontSize=45;" parent="ySRVVfsnRc5VpeJbLZZo-35" vertex="1">
          <mxGeometry x="5" width="70" height="70" as="geometry" />
        </mxCell>
        <mxCell id="ySRVVfsnRc5VpeJbLZZo-32" value="Left Wheel Motor" style="text;html=1;strokeColor=none;fillColor=none;align=center;verticalAlign=middle;whiteSpace=wrap;rounded=0;fontSize=12;" parent="ySRVVfsnRc5VpeJbLZZo-35" vertex="1">
          <mxGeometry y="80" width="80" height="30" as="geometry" />
        </mxCell>
        <mxCell id="ySRVVfsnRc5VpeJbLZZo-36" value="" style="endArrow=classic;html=1;rounded=0;fontSize=12;entryX=0.5;entryY=0;entryDx=0;entryDy=0;entryPerimeter=0;exitX=0.25;exitY=1;exitDx=0;exitDy=0;" parent="1" source="ySRVVfsnRc5VpeJbLZZo-28" target="ySRVVfsnRc5VpeJbLZZo-30" edge="1">
          <mxGeometry width="50" height="50" relative="1" as="geometry">
            <mxPoint x="370" y="500" as="sourcePoint" />
            <mxPoint x="420" y="450" as="targetPoint" />
          </mxGeometry>
        </mxCell>
        <mxCell id="ySRVVfsnRc5VpeJbLZZo-37" value="" style="endArrow=classic;html=1;rounded=0;fontSize=12;entryX=0.5;entryY=0;entryDx=0;entryDy=0;entryPerimeter=0;exitX=0.75;exitY=1;exitDx=0;exitDy=0;" parent="1" source="ySRVVfsnRc5VpeJbLZZo-28" target="ySRVVfsnRc5VpeJbLZZo-31" edge="1">
          <mxGeometry width="50" height="50" relative="1" as="geometry">
            <mxPoint x="370" y="500" as="sourcePoint" />
            <mxPoint x="420" y="450" as="targetPoint" />
          </mxGeometry>
        </mxCell>
        <mxCell id="ySRVVfsnRc5VpeJbLZZo-39" value="" style="group" parent="1" vertex="1" connectable="0">
          <mxGeometry x="680" y="430" width="128" height="140" as="geometry" />
        </mxCell>
        <mxCell id="ySRVVfsnRc5VpeJbLZZo-23" value="" style="shape=image;html=1;verticalAlign=top;verticalLabelPosition=bottom;labelBackgroundColor=#ffffff;imageAspect=0;aspect=fixed;image=https://cdn3.iconfinder.com/data/icons/essential-pack/32/26-Battery_status-128.png;fontSize=12;" parent="ySRVVfsnRc5VpeJbLZZo-39" vertex="1">
          <mxGeometry width="128" height="128" as="geometry" />
        </mxCell>
        <mxCell id="ySRVVfsnRc5VpeJbLZZo-38" value="&lt;div&gt;Batery&lt;/div&gt;" style="text;html=1;strokeColor=none;fillColor=none;align=center;verticalAlign=middle;whiteSpace=wrap;rounded=0;labelBackgroundColor=none;fontSize=12;" parent="ySRVVfsnRc5VpeJbLZZo-39" vertex="1">
          <mxGeometry x="34" y="110" width="60" height="30" as="geometry" />
        </mxCell>
        <mxCell id="GYxt-eGHdlYET-Xa1d6W-1" value="" style="group" vertex="1" connectable="0" parent="1">
          <mxGeometry x="580" y="75" width="80" height="110" as="geometry" />
        </mxCell>
        <mxCell id="GYxt-eGHdlYET-Xa1d6W-2" value="M" style="dashed=0;outlineConnect=0;align=center;html=1;shape=mxgraph.pid.engines.electric_motor;fontSize=45;" vertex="1" parent="GYxt-eGHdlYET-Xa1d6W-1">
          <mxGeometry x="5" width="70" height="70" as="geometry" />
        </mxCell>
        <mxCell id="GYxt-eGHdlYET-Xa1d6W-3" value="&lt;div&gt;Senzor Servo&lt;/div&gt;" style="text;html=1;strokeColor=none;fillColor=none;align=center;verticalAlign=middle;whiteSpace=wrap;rounded=0;fontSize=12;" vertex="1" parent="GYxt-eGHdlYET-Xa1d6W-1">
          <mxGeometry y="80" width="80" height="30" as="geometry" />
        </mxCell>
        <mxCell id="GYxt-eGHdlYET-Xa1d6W-4" value="" style="endArrow=classic;html=1;rounded=0;entryX=0.5;entryY=1;entryDx=0;entryDy=0;" edge="1" parent="1" source="ySRVVfsnRc5VpeJbLZZo-1" target="GYxt-eGHdlYET-Xa1d6W-3">
          <mxGeometry width="50" height="50" relative="1" as="geometry">
            <mxPoint x="700" y="420" as="sourcePoint" />
            <mxPoint x="750" y="370" as="targetPoint" />
          </mxGeometry>
        </mxCell>
      </root>
    </mxGraphModel>
  </diagram>
</mxfile>
